<?xml version="1.0" encoding="utf-8"?>
<!-- Generator: Adobe Illustrator 21.0.0, SVG Export Plug-In . SVG Version: 6.00 Build 0)  -->
<svg version="1.1" id="Layer_2_copy_2" xmlns="http://www.w3.org/2000/svg" xmlns:xlink="http://www.w3.org/1999/xlink" x="0px"
	 y="0px" viewBox="0 0 1024 1024" style="enable-background:new 0 0 1024 1024;" xml:space="preserve">
<style type="text/css">
	.st0{fill:#FFFFFF;}
	.st1{fill:#FFF792;}
	.st2{fill:#FF9852;}
</style>
<path class="st0" d="M1016.2,8.2C777-30.6,579.4,75.3,412,282.5C210.7,269.7,118.8,384.3,39.3,513.4l242.4,28.2l-8.7,85.4
	l124.5,124.5l85.4-8.7l28.2,242.4C640.2,905.7,754.8,813.8,742,612.5C949.2,445.1,1055.1,247.5,1016.2,8.2z M611.2,500.2
	c-24,24-62.9,24-86.8,0s-24-62.9,0-86.8c24-24,62.9-24,86.8,0C635.2,437.3,635.2,476.2,611.2,500.2z M677,347.5
	c-38-38-38-99.5,0-137.5s99.5-38,137.5,0s38,99.5,0,137.5S715,385.4,677,347.5z"/>
<polygon class="st1" points="364.9,785 239.2,659.2 95.5,796.2 91.8,932.2 227.8,928.5 "/>
<path class="st2" d="M364.9,785c-0.1,0.1-116.8,91.4-206.8,80.9c-10.5-90,81-206.7,81.1-206.7C173.9,670.5,108,714.8,61.8,806.1
	C31.9,863.6,9.6,951.5,0,1024c72.5-9.6,160.4-31.9,217.9-61.8C309.2,916,353.6,850.2,364.9,785z"/>
</svg>
